<svg xmlns="http://www.w3.org/2000/svg" viewBox="0 0 480 260" fill="none">
  
  <rect width="480" height="260" fill="#0E1A12"></rect>
  
  <circle cx="100" cy="40" r="80" fill="#A3E635" opacity="0.08"></circle>
  <circle cx="380" cy="40" r="80" fill="#A3E635" opacity="0.08"></circle>
  
  <path d="M0 180 L40 150 L60 130 L100 120 L140 115 L240 110 L340 115 L380 120 L420 130 L440 150 L480 180 L480 220 L0 220 Z" fill="#1C2419"></path>
  
  <g fill="#F4F7EE">
    <rect x="96" y="20" width="8" height="60" rx="1"></rect>
    <rect x="376" y="20" width="8" height="60" rx="1"></rect>
    <rect x="84" y="14" width="32" height="14" rx="2" fill="#A3E635"></rect>
    <rect x="364" y="14" width="32" height="14" rx="2" fill="#A3E635"></rect>
  </g>
  
  <rect x="40" y="180" width="400" height="6" fill="#A3E635" opacity="0.18"></rect>
  <rect x="40" y="195" width="400" height="6" fill="#A3E635" opacity="0.12"></rect>
  
  <rect x="0" y="220" width="480" height="40" fill="#4D7C0F"></rect>
  <rect x="0" y="220" width="60" height="40" fill="#3F6212" opacity="0.7"></rect>
  <rect x="120" y="220" width="60" height="40" fill="#3F6212" opacity="0.7"></rect>
  <rect x="240" y="220" width="60" height="40" fill="#3F6212" opacity="0.7"></rect>
  <rect x="360" y="220" width="60" height="40" fill="#3F6212" opacity="0.7"></rect>
  <line x1="240" y1="220" x2="240" y2="260" stroke="#F4F7EE" stroke-width="2" opacity="0.7"></line>
</svg>