<svg xmlns="http://www.w3.org/2000/svg" viewBox="0 0 400 260" fill="none">
  
  
  <rect width="400" height="260" fill="#3F6212"></rect>
  
  <rect x="0" y="0" width="40" height="260" fill="#4D7C0F" opacity="0.6"></rect>
  <rect x="80" y="0" width="40" height="260" fill="#4D7C0F" opacity="0.6"></rect>
  <rect x="160" y="0" width="40" height="260" fill="#4D7C0F" opacity="0.6"></rect>
  <rect x="240" y="0" width="40" height="260" fill="#4D7C0F" opacity="0.6"></rect>
  <rect x="320" y="0" width="40" height="260" fill="#4D7C0F" opacity="0.6"></rect>
  
  <g stroke="#F4F7EE" stroke-width="2" fill="none">
    
    <rect x="20" y="20" width="360" height="220"></rect>
    
    <line x1="200" y1="20" x2="200" y2="240"></line>
    
    <circle cx="200" cy="130" r="38"></circle>
    <circle cx="200" cy="130" r="2.5" fill="#F4F7EE"></circle>
    
    <rect x="20" y="70" width="60" height="120"></rect>
    <rect x="20" y="100" width="22" height="60"></rect>
    <circle cx="62" cy="130" r="2.5" fill="#F4F7EE"></circle>
    <path d="M80 110 Q92 130 80 150"></path>
    
    <rect x="320" y="70" width="60" height="120"></rect>
    <rect x="358" y="100" width="22" height="60"></rect>
    <circle cx="338" cy="130" r="2.5" fill="#F4F7EE"></circle>
    <path d="M320 110 Q308 130 320 150"></path>
    
    <path d="M20 26 Q26 26 26 20"></path>
    <path d="M380 26 Q374 26 374 20"></path>
    <path d="M20 234 Q26 234 26 240"></path>
    <path d="M380 234 Q374 234 374 240"></path>
  </g>
</svg>